<svg xmlns="http://www.w3.org/2000/svg" viewBox="0 0 16 16" shape-rendering="crispEdges" role="img"><rect x="1" y="3" width="14" height="1" fill="#0F1E34"/><rect x="1" y="4" width="1" height="1" fill="#0F1E34"/><rect x="2" y="4" width="5" height="1" fill="#F5EDD8"/><rect x="7" y="4" width="2" height="1" fill="#C9A66B"/><rect x="9" y="4" width="5" height="1" fill="#F5EDD8"/><rect x="14" y="4" width="1" height="1" fill="#0F1E34"/><rect x="1" y="5" width="1" height="1" fill="#0F1E34"/><rect x="2" y="5" width="1" height="1" fill="#F5EDD8"/><rect x="3" y="5" width="3" height="1" fill="#0F1E34"/><rect x="6" y="5" width="1" height="1" fill="#F5EDD8"/><rect x="7" y="5" width="2" height="1" fill="#C9A66B"/><rect x="9" y="5" width="1" height="1" fill="#F5EDD8"/><rect x="10" y="5" width="3" height="1" fill="#0F1E34"/><rect x="13" y="5" width="1" height="1" fill="#F5EDD8"/><rect x="14" y="5" width="1" height="1" fill="#0F1E34"/><rect x="1" y="6" width="1" height="1" fill="#0F1E34"/><rect x="2" y="6" width="5" height="1" fill="#F5EDD8"/><rect x="7" y="6" width="2" height="1" fill="#C9A66B"/><rect x="9" y="6" width="5" height="1" fill="#F5EDD8"/><rect x="14" y="6" width="1" height="1" fill="#0F1E34"/><rect x="1" y="7" width="1" height="1" fill="#0F1E34"/><rect x="2" y="7" width="1" height="1" fill="#F5EDD8"/><rect x="3" y="7" width="3" height="1" fill="#0F1E34"/><rect x="6" y="7" width="1" height="1" fill="#F5EDD8"/><rect x="7" y="7" width="2" height="1" fill="#C9A66B"/><rect x="9" y="7" width="1" height="1" fill="#F5EDD8"/><rect x="10" y="7" width="3" height="1" fill="#0F1E34"/><rect x="13" y="7" width="1" height="1" fill="#F5EDD8"/><rect x="14" y="7" width="1" height="1" fill="#0F1E34"/><rect x="1" y="8" width="1" height="1" fill="#0F1E34"/><rect x="2" y="8" width="5" height="1" fill="#F5EDD8"/><rect x="7" y="8" width="2" height="1" fill="#C9A66B"/><rect x="9" y="8" width="5" height="1" fill="#F5EDD8"/><rect x="14" y="8" width="1" height="1" fill="#0F1E34"/><rect x="1" y="9" width="1" height="1" fill="#0F1E34"/><rect x="2" y="9" width="1" height="1" fill="#F5EDD8"/><rect x="3" y="9" width="3" height="1" fill="#0F1E34"/><rect x="6" y="9" width="1" height="1" fill="#F5EDD8"/><rect x="7" y="9" width="2" height="1" fill="#C9A66B"/><rect x="9" y="9" width="1" height="1" fill="#F5EDD8"/><rect x="10" y="9" width="3" height="1" fill="#0F1E34"/><rect x="13" y="9" width="1" height="1" fill="#F5EDD8"/><rect x="14" y="9" width="1" height="1" fill="#0F1E34"/><rect x="1" y="10" width="1" height="1" fill="#0F1E34"/><rect x="2" y="10" width="5" height="1" fill="#F5EDD8"/><rect x="7" y="10" width="2" height="1" fill="#C9A66B"/><rect x="9" y="10" width="5" height="1" fill="#F5EDD8"/><rect x="14" y="10" width="1" height="1" fill="#0F1E34"/><rect x="1" y="11" width="14" height="1" fill="#0F1E34"/></svg>
