<svg xmlns="http://www.w3.org/2000/svg" viewBox="0 0 16 16" shape-rendering="crispEdges" role="img"><rect x="2" y="1" width="12" height="1" fill="#0F1E34"/><rect x="1" y="2" width="1" height="1" fill="#0F1E34"/><rect x="2" y="2" width="12" height="1" fill="#C9A66B"/><rect x="14" y="2" width="1" height="1" fill="#0F1E34"/><rect x="1" y="3" width="1" height="1" fill="#0F1E34"/><rect x="2" y="3" width="1" height="1" fill="#C9A66B"/><rect x="3" y="3" width="10" height="1" fill="#0F1E34"/><rect x="13" y="3" width="1" height="1" fill="#C9A66B"/><rect x="14" y="3" width="1" height="1" fill="#0F1E34"/><rect x="1" y="4" width="1" height="1" fill="#0F1E34"/><rect x="2" y="4" width="1" height="1" fill="#C9A66B"/><rect x="3" y="4" width="10" height="1" fill="#F5EDD8"/><rect x="13" y="4" width="1" height="1" fill="#C9A66B"/><rect x="14" y="4" width="1" height="1" fill="#0F1E34"/><rect x="1" y="5" width="1" height="1" fill="#0F1E34"/><rect x="2" y="5" width="1" height="1" fill="#C9A66B"/><rect x="3" y="5" width="1" height="1" fill="#F5EDD8"/><rect x="4" y="5" width="8" height="1" fill="#0F1E34"/><rect x="12" y="5" width="1" height="1" fill="#F5EDD8"/><rect x="13" y="5" width="1" height="1" fill="#C9A66B"/><rect x="14" y="5" width="1" height="1" fill="#0F1E34"/><rect x="1" y="6" width="1" height="1" fill="#0F1E34"/><rect x="2" y="6" width="1" height="1" fill="#C9A66B"/><rect x="3" y="6" width="10" height="1" fill="#F5EDD8"/><rect x="13" y="6" width="1" height="1" fill="#C9A66B"/><rect x="14" y="6" width="1" height="1" fill="#0F1E34"/><rect x="1" y="7" width="1" height="1" fill="#0F1E34"/><rect x="2" y="7" width="1" height="1" fill="#C9A66B"/><rect x="3" y="7" width="1" height="1" fill="#F5EDD8"/><rect x="4" y="7" width="8" height="1" fill="#0F1E34"/><rect x="12" y="7" width="1" height="1" fill="#F5EDD8"/><rect x="13" y="7" width="1" height="1" fill="#C9A66B"/><rect x="14" y="7" width="1" height="1" fill="#0F1E34"/><rect x="1" y="8" width="1" height="1" fill="#0F1E34"/><rect x="2" y="8" width="1" height="1" fill="#C9A66B"/><rect x="3" y="8" width="10" height="1" fill="#F5EDD8"/><rect x="13" y="8" width="1" height="1" fill="#C9A66B"/><rect x="14" y="8" width="1" height="1" fill="#0F1E34"/><rect x="1" y="9" width="1" height="1" fill="#0F1E34"/><rect x="2" y="9" width="1" height="1" fill="#C9A66B"/><rect x="3" y="9" width="1" height="1" fill="#F5EDD8"/><rect x="4" y="9" width="6" height="1" fill="#0F1E34"/><rect x="10" y="9" width="3" height="1" fill="#F5EDD8"/><rect x="13" y="9" width="1" height="1" fill="#C9A66B"/><rect x="14" y="9" width="1" height="1" fill="#0F1E34"/><rect x="1" y="10" width="1" height="1" fill="#0F1E34"/><rect x="2" y="10" width="1" height="1" fill="#C9A66B"/><rect x="3" y="10" width="10" height="1" fill="#F5EDD8"/><rect x="13" y="10" width="1" height="1" fill="#C9A66B"/><rect x="14" y="10" width="1" height="1" fill="#0F1E34"/><rect x="1" y="11" width="1" height="1" fill="#0F1E34"/><rect x="2" y="11" width="1" height="1" fill="#C9A66B"/><rect x="3" y="11" width="10" height="1" fill="#0F1E34"/><rect x="13" y="11" width="1" height="1" fill="#C9A66B"/><rect x="14" y="11" width="1" height="1" fill="#0F1E34"/><rect x="1" y="12" width="1" height="1" fill="#0F1E34"/><rect x="2" y="12" width="12" height="1" fill="#C9A66B"/><rect x="14" y="12" width="1" height="1" fill="#0F1E34"/><rect x="2" y="13" width="5" height="1" fill="#0F1E34"/><rect x="7" y="13" width="2" height="1" fill="#9C3B2E"/><rect x="9" y="13" width="5" height="1" fill="#0F1E34"/><rect x="7" y="14" width="2" height="1" fill="#9C3B2E"/></svg>
